<svg version="1.1" xmlns="http://www.w3.org/2000/svg" viewBox="0 0 80 80" width="240" height="240"><!-- svg-source:excalidraw --><metadata></metadata><defs><style class="style-fonts">
      </style></defs><g stroke-linecap="round"><g stroke-opacity="0.6" fill-opacity="0.6" transform="translate(40 10) rotate(0 0 30)"><path d="M0 0 C0 10, 0 50, 0 60 M0 0 C0 10, 0 50, 0 60" stroke="#1e1e1e" stroke-width="2" fill="none"></path></g></g><mask></mask><g stroke-linecap="round"><g stroke-opacity="0.6" fill-opacity="0.6" transform="translate(10 52) rotate(0 30 0)"><path d="M0 0 C10 0, 50 0, 60 0 M0 0 C10 0, 50 0, 60 0" stroke="#1e1e1e" stroke-width="2" fill="none"></path></g></g><mask></mask><g stroke-linecap="round"><g transform="translate(10 52) rotate(0 30 -21)"><path d="M0 0 C3 -1, 13 -3, 18 -6 C23 -9, 26 -13, 30 -18 C34 -23, 37 -32, 42 -36 C47 -40, 57 -41, 60 -42 M0 0 C3 -1, 13 -3, 18 -6 C23 -9, 26 -13, 30 -18 C34 -23, 37 -32, 42 -36 C47 -40, 57 -41, 60 -42" stroke="#e03131" stroke-width="4" fill="none"></path></g></g><mask></mask></svg>
